HIERARCHY
ROOT Hips
{
	OFFSET 0.00 0.00 0.00
	CHANNELS 6 Xposition Yposition Zposition Xrotation Yrotation Zrotation
	JOINT Spine
	{
		OFFSET 0.00000 7.50895 0.00000
		CHANNELS 3 Xrotation Yrotation Zrotation
		JOINT Head
		{
			OFFSET 0.00000 13.86115 0.00000
			CHANNELS 3 Xrotation Yrotation Zrotation
			End Site
			{
				OFFSET 0.00000 4.52755 0.00000
			}
		}
		JOINT LeftShoulder
		{
			OFFSET 0.00000 8.20478 0.00000
			CHANNELS 3 Xrotation Yrotation Zrotation
			JOINT LeftArm
			{
				OFFSET 6.63596 0.00000 0.00000
				CHANNELS 3 Xrotation Yrotation Zrotation
				JOINT LeftForeArm
				{
					OFFSET 10.27422 0.00000 0.00000
					CHANNELS 3 Yrotation Zrotation Xrotation
					JOINT LeftHand
					{
						OFFSET 8.52215 0.00000 0.00000
						CHANNELS 3 Xrotation Yrotation Zrotation
						JOINT LeftHandThumb1
						{
							OFFSET 0.00000 0.00000 0.00000
							CHANNELS 3 Xrotation Zrotation Yrotation
							End Site
							{
								OFFSET 0.00000 0.00000 3.93700
							}
						}
						End Site
						{
							OFFSET 3.93700 0.00000 0.00000
						}
					}
				}
			}
		}
		JOINT RightShoulder
		{
			OFFSET 0.00000 8.20478 0.00000
			CHANNELS 3 Xrotation Yrotation Zrotation
			JOINT RightArm
			{
				OFFSET -6.63596 0.00000 0.00000
				CHANNELS 3 Xrotation Yrotation Zrotation
				JOINT RightForeArm
				{
					OFFSET -10.27422 0.00000 0.00000
					CHANNELS 3 Yrotation Zrotation Xrotation
					JOINT RightHand
					{
						OFFSET -8.52215 0.00000 0.00000
						CHANNELS 3 Xrotation Yrotation Zrotation
						JOINT RightHandThumb1
						{
							OFFSET 0.00000 0.00000 0.00000
							CHANNELS 3 Xrotation Zrotation Yrotation
							End Site
							{
								OFFSET 0.00000 0.00000 3.93700
							}
						}
						End Site
						{
							OFFSET -3.93700 0.00000 0.00000
						}
					}
				}
			}
		}
	}
	JOINT LeftUpLeg
	{
		OFFSET 3.00056 0.00000 0.00000
		CHANNELS 3 Xrotation Yrotation Zrotation
		JOINT LeftLeg
		{
			OFFSET 0.00000 -16.49085 0.00000
			CHANNELS 3 Xrotation Yrotation Zrotation
			JOINT LeftFoot
			{
				OFFSET 0.00000 -14.55658 0.00000
				CHANNELS 3 Xrotation Yrotation Zrotation
				JOINT LeftToeBase
				{
					OFFSET 0.00000 -1.25038 4.66650
					CHANNELS 3 Xrotation Yrotation Zrotation
					End Site
					{
						OFFSET 0.00000 0.00000 2.95275
					}
				}
			}
		}
	}
	JOINT RightUpLeg
	{
		OFFSET -3.00056 0.00000 0.00000
		CHANNELS 3 Xrotation Yrotation Zrotation
		JOINT RightLeg
		{
			OFFSET 0.00000 -16.49085 0.00000
			CHANNELS 3 Xrotation Yrotation Zrotation
			JOINT RightFoot
			{
				OFFSET 0.00000 -14.55658 0.00000
				CHANNELS 3 Xrotation Yrotation Zrotation
				JOINT RightToeBase
				{
					OFFSET 0.00000 -1.25038 4.66650
					CHANNELS 3 Xrotation Yrotation Zrotation
					End Site
					{
						OFFSET 0.00000 0.00000 2.95275
					}
				}
			}
		}
	}
}
MOTION
Frames: 16
Frame Time: 0.008333
 -5.8327 32.8672 -4.3373 10.2613 6.6436 -2.3856 -15.5342 -0.8993 -3.9213 0.2191 -42.6289 9.0209 19.1523 11.8537 7.9158 -9.8016 -34.5628 -68.2892 -22.8277 -0.0000 3.0631 2.8758 22.5719 -7.4560 33.1476 -0.0000 26.2537 -26.6844 -8.8037 -32.4296 -32.0349 -37.4588 17.6786 11.2650 -0.0000 -58.4193 -5.4776 -7.6551 -35.7490 32.8623 0.0000 -24.3270 -5.1254 2.8876 4.6458 -1.6478 -0.0000 -0.0000 -8.0817 13.0278 -13.0789 12.1819 0.0000 0.0000 -6.7100 -11.6826 -2.8756 2.1757 0.0000 -0.0000 -7.5727 -1.3130 -13.4091 -0.0130 -0.0000 -0.0000
 -5.8219 32.8668 -4.3264 10.2206 6.7329 -2.3578 -15.4954 -0.9282 -3.9129 0.2053 -42.6120 8.9428 19.1838 11.8922 7.8766 -9.7905 -34.5583 -68.2990 -22.7579 -0.0000 2.8981 2.6056 22.4802 -6.7872 33.1476 -0.0000 26.2537 -26.6479 -8.7671 -32.3933 -31.8731 -37.4301 17.7277 11.2102 -0.0000 -58.5173 -5.4950 -7.6044 -36.0157 32.8623 0.0000 -24.3270 -5.0494 2.8586 4.5904 -1.6932 -0.0000 -0.0000 -8.0521 12.9820 -13.0202 12.1029 -0.0000 0.0000 -6.6344 -11.7910 -2.9340 2.1467 -0.0000 0.0000 -7.5919 -1.2586 -13.2966 -0.0099 -0.0000 -0.0000
 -5.8207 32.8666 -4.3238 10.2250 6.7862 -2.3563 -15.4872 -0.9153 -3.8962 0.2079 -42.6127 8.8969 19.2059 11.9008 7.8633 -9.7453 -34.5655 -68.2786 -22.7118 -0.0000 2.9507 2.8741 22.4399 -7.4928 33.1476 -0.0000 26.2537 -26.6039 -8.7873 -32.3901 -31.7483 -37.4543 17.8236 11.2155 -0.0000 -58.6374 -5.5535 -7.6374 -36.1888 32.8623 0.0000 -24.3270 -5.0493 2.8452 4.5807 -1.7061 -0.0000 -0.0000 -8.0425 12.9495 -13.0013 12.1074 -0.0000 0.0000 -6.6267 -11.8304 -2.9449 2.1452 -0.0000 0.0000 -7.5961 -1.2583 -13.3098 -0.0158 0.0000 -0.0000
 -5.8225 32.8664 -4.3232 10.2276 6.8334 -2.3567 -15.4680 -0.9025 -3.8931 0.2297 -42.6055 8.9003 19.2304 11.9084 7.8698 -9.7039 -34.5845 -68.2517 -22.6639 -0.0000 2.8084 2.7039 22.5100 -7.0323 33.1476 -0.0000 26.2537 -26.5639 -8.8012 -32.3907 -31.7090 -37.5301 17.8780 11.2329 -0.0000 -58.6887 -5.6808 -7.8228 -36.1612 32.8623 0.0000 -24.3270 -5.0597 2.8414 4.5804 -1.7014 0.0000 0.0000 -8.0328 12.9147 -13.0410 12.1146 -0.0000 0.0000 -6.6278 -11.8468 -2.9451 2.1601 -0.0000 -0.0000 -7.6082 -1.2908 -13.3371 -0.0043 0.0000 0.0000
 -5.8237 32.8664 -4.3221 10.2314 6.8712 -2.3561 -15.4503 -0.8828 -3.8889 0.2557 -42.6033 8.9072 19.2559 11.9218 7.8657 -9.6711 -34.5817 -68.2261 -22.5868 -0.0000 2.8404 2.8730 22.2877 -7.5380 33.1476 -0.0000 26.2537 -26.5326 -8.8134 -32.3859 -31.6428 -37.5665 17.9541 11.1796 -0.0000 -58.7933 -5.5726 -7.7463 -35.8997 32.8623 0.0000 -24.3270 -5.0628 2.8222 4.5776 -1.7069 0.0000 0.0000 -8.0176 12.8878 -13.0127 12.0897 -0.0000 0.0000 -6.6276 -11.8826 -2.9483 2.1649 0.0000 -0.0000 -7.6215 -1.2878 -13.3539 0.0098 -0.0000 0.0000
 -5.8256 32.8667 -4.3209 10.2347 6.8996 -2.3584 -15.4358 -0.8716 -3.8823 0.3025 -42.6091 8.9166 19.2886 11.9424 7.8583 -9.6545 -34.5632 -68.2048 -22.5535 -0.0000 2.7089 2.6561 22.3589 -6.9530 33.1476 -0.0000 26.2537 -26.5055 -8.8170 -32.3634 -31.6410 -37.6011 17.9834 11.1670 -0.0000 -58.7928 -5.4078 -7.4556 -36.1126 32.8623 0.0000 -24.3270 -5.0688 2.8042 4.5815 -1.7030 -0.0000 0.0000 -8.0135 12.8832 -13.0369 12.1077 -0.0000 0.0000 -6.6242 -11.9092 -2.9434 2.1631 -0.0000 0.0000 -7.6734 -1.2866 -13.1733 0.2062 0.0000 0.0000
 -5.8265 32.8667 -4.3188 10.2329 6.9286 -2.3585 -15.4189 -0.8583 -3.8772 0.3462 -42.6205 8.9215 19.3167 11.9603 7.8565 -9.6440 -34.5680 -68.1950 -22.4850 -0.0000 2.7488 2.8629 22.4462 -7.4620 33.1476 -0.0000 26.2537 -26.4887 -8.8152 -32.3642 -31.6640 -37.6818 18.0043 11.2181 -0.0000 -58.7259 -5.5378 -7.6509 -36.0634 32.8623 0.0000 -24.3270 -5.0607 2.7680 4.5797 -1.7093 -0.0000 -0.0000 -7.9946 12.9004 -13.0524 11.9054 -0.0000 0.0000 -6.6107 -11.9388 -2.9453 2.1576 0.0000 -0.0000 -7.6215 -1.2939 -13.3351 -0.0213 -0.0000 -0.0000
 -5.8278 32.8667 -4.3171 10.2135 6.9410 -2.3589 -15.3810 -0.8359 -3.8668 0.4072 -42.6312 8.9273 19.3423 11.9477 7.8539 -9.6040 -34.5291 -68.1574 -22.4381 -0.0000 2.7766 2.9393 22.3732 -7.6824 33.1476 -0.0000 26.2537 -26.4796 -8.7872 -32.3425 -31.6791 -37.7734 17.9958 11.3066 -0.0000 -58.6337 -5.5697 -7.7175 -35.9859 32.8623 0.0000 -24.3270 -5.0391 2.7711 4.5834 -1.7157 0.0000 -0.0000 -7.9918 12.8847 -13.0207 12.0561 0.0000 0.0000 -6.5846 -11.9712 -2.9391 2.1513 0.0000 0.0000 -7.6208 -1.2922 -13.3532 -0.0114 0.0000 -0.0000
 -5.8291 32.8662 -4.3143 10.2061 6.9553 -2.3618 -15.3766 -0.8402 -3.8464 0.5336 -42.6012 8.9559 19.3372 11.9828 7.8391 -9.5563 -34.5392 -68.1312 -22.3534 -0.0000 2.6051 2.7498 22.3399 -7.2018 33.1476 -0.0000 26.2537 -26.5126 -8.7006 -32.3590 -31.6835 -37.9233 17.9808 11.4556 -0.0000 -58.3175 -5.5938 -7.7674 -35.9298 32.8623 0.0000 -24.3270 -5.0319 2.7812 4.5887 -1.7136 0.0000 0.0000 -8.0024 12.8617 -13.0179 12.0798 0.0000 -0.0000 -6.5678 -12.0090 -2.9338 2.1491 0.0000 -0.0000 -7.6335 -1.2561 -13.3827 0.0289 -0.0000 -0.0000
 -5.8308 32.8662 -4.3130 10.2050 6.9653 -2.3645 -15.3575 -0.8224 -3.8375 0.5841 -42.6086 8.9617 19.3651 11.9988 7.8341 -9.5538 -34.5479 -68.1128 -22.2765 -0.0000 2.5026 2.7201 22.3614 -7.1183 33.1476 -0.0000 26.2537 -26.5225 -8.6738 -32.3104 -31.6579 -37.9431 17.9803 11.5123 -0.0000 -58.1464 -5.4750 -7.5670 -36.0495 32.8623 0.0000 -24.3270 -5.0256 2.7554 4.5930 -1.7184 0.0000 -0.0000 -8.0043 12.8797 -13.0094 12.0868 0.0000 0.0000 -6.5574 -12.0137 -2.9255 2.1384 0.0000 0.0000 -7.6306 -1.2777 -13.3838 0.0204 0.0000 -0.0000
 -5.8333 32.8662 -4.3110 10.2072 6.9557 -2.3716 -15.3452 -0.7809 -3.8192 0.6474 -42.6316 8.9879 19.3904 12.0104 7.8299 -9.5517 -34.5474 -68.0970 -22.2113 -0.0000 2.5864 2.9629 22.4401 -7.7219 33.1476 -0.0000 26.2537 -26.5422 -8.6737 -32.3086 -31.6142 -37.9888 18.0213 11.6042 -0.0000 -57.9115 -5.3194 -7.3304 -36.1198 32.8623 0.0000 -24.3270 -5.0222 2.7664 4.6055 -1.7238 -0.0000 -0.0000 -7.9937 12.8835 -13.0403 12.0746 -0.0000 0.0000 -6.5588 -12.0518 -2.9139 2.1359 -0.0000 -0.0000 -7.6707 -1.2177 -13.1769 0.1908 0.0000 0.0000
 -5.8353 32.8657 -4.3093 10.2077 6.9502 -2.3750 -15.3254 -0.7484 -3.8044 0.6873 -42.6434 9.0083 19.4024 12.0218 7.8278 -9.5305 -34.5533 -68.0735 -22.1537 -0.0000 2.4971 2.8063 22.4358 -7.3190 33.1476 -0.0000 26.2537 -26.5335 -8.6697 -32.2931 -31.5601 -38.0087 18.0656 11.6570 -0.0000 -57.7755 -5.2214 -7.2089 -36.0633 32.8623 0.0000 -24.3270 -5.0185 2.7865 4.6122 -1.7328 -0.0000 -0.0000 -7.9764 12.8785 -13.0603 12.0515 0.0000 -0.0000 -6.5499 -12.0514 -2.9057 2.1274 0.0000 0.0000 -7.6193 -1.2267 -13.3469 -0.0217 -0.0000 0.0000
 -5.8368 32.8653 -4.3081 10.2083 6.9397 -2.3733 -15.3058 -0.7111 -3.7960 0.7389 -42.6651 9.0416 19.4205 12.0338 7.8336 -9.5490 -34.5210 -68.0796 -22.0865 -0.0000 2.6054 3.0274 22.4205 -7.8945 33.1476 -0.0000 26.2537 -26.5034 -8.6653 -32.2751 -31.5965 -38.0631 18.0564 11.7211 -0.0000 -57.6747 -5.3039 -7.4314 -35.6699 32.8623 0.0000 -24.3270 -5.0148 2.8001 4.6132 -1.7341 -0.0000 0.0000 -7.9887 12.8695 -13.0237 11.8908 0.0000 -0.0000 -6.5505 -12.0766 -2.9055 2.1261 0.0000 -0.0000 -7.6188 -1.1973 -13.3239 -0.0416 0.0000 -0.0000
 -5.8392 32.8651 -4.3066 10.2118 6.9217 -2.3770 -15.2906 -0.6649 -3.7818 0.7754 -42.6770 9.0700 19.4248 12.0360 7.8400 -9.5253 -34.5057 -68.0616 -22.0411 -0.0000 2.4975 2.8200 22.4178 -7.3600 33.1476 -0.0000 26.2537 -26.4763 -8.6801 -32.2590 -31.6257 -38.0838 18.0614 11.7644 -0.0000 -57.6065 -5.4029 -7.6383 -35.4339 32.8623 0.0000 -24.3270 -5.0061 2.8059 4.6220 -1.7559 0.0000 0.0000 -7.9800 12.8933 -13.0475 12.0779 0.0000 -0.0000 -6.5495 -12.0895 -2.8940 2.1197 -0.0000 -0.0000 -7.6310 -1.1725 -13.3530 0.0122 -0.0000 -0.0000
 -5.8416 32.8647 -4.3045 10.2122 6.8977 -2.3787 -15.2700 -0.6010 -3.7772 0.8237 -42.6840 9.1328 19.4703 12.0235 7.8609 -9.5617 -34.4460 -68.0719 -22.0190 -0.0000 2.5081 2.7895 22.4974 -7.2569 33.1476 -0.0000 26.2537 -26.4638 -8.7209 -32.2376 -31.6525 -38.0710 18.0814 11.7987 -0.0000 -57.5068 -5.4132 -7.6200 -35.5504 32.8623 0.0000 -24.3270 -4.9985 2.8534 4.6304 -1.7699 -0.0000 -0.0000 -7.9743 12.8620 -13.0287 12.0524 0.0000 0.0000 -6.5436 -12.0982 -2.8847 2.1058 0.0000 0.0000 -7.6198 -1.1381 -13.3599 0.0042 -0.0000 -0.0000
 -5.8428 32.8645 -4.3035 10.2186 6.8828 -2.3738 -15.2549 -0.5556 -3.7719 0.8477 -42.6999 9.1520 19.4624 12.0370 7.8648 -9.5232 -34.4517 -68.0474 -21.9999 -0.0000 2.5284 2.7987 22.4948 -7.2813 33.1476 -0.0000 26.2537 -26.4511 -8.7282 -32.2342 -31.6383 -38.0904 18.1129 11.8666 -0.0000 -57.3773 -5.4525 -7.6043 -35.8033 32.8623 0.0000 -24.3270 -4.9939 2.8511 4.6274 -1.7819 -0.0000 -0.0000 -7.9738 12.8711 -12.9823 11.8994 0.0000 -0.0000 -6.5443 -12.1079 -2.8816 2.0912 -0.0000 0.0000 -7.6178 -1.1281 -13.3744 0.0389 0.0000 0.0000
